<svg width="30" height="30" viewBox="0 0 30 30" fill="none" xmlns="http://www.w3.org/2000/svg">
<path d="M3.03854 13.0319L6.75184 14.5037H6.75162C6.33295 15.5141 5.99914 16.5545 5.75305 17.6155L5.61216 18.2274L10.9356 23.3188L11.5758 23.1873V23.1871C12.6857 22.9519 13.7743 22.6328 14.8313 22.2326L16.3711 25.7819L16.3709 25.7817C16.4015 25.8532 16.4678 25.9051 16.5471 25.92C16.6263 25.9347 16.7081 25.9104 16.7646 25.8551L19.0917 23.6308H19.0919C19.8598 22.8968 20.2669 21.8864 20.2122 20.8496L20.1291 19.4207C24.4377 16.3794 28.7971 11.0464 29.985 1.73884C30.0533 1.26589 29.8865 0.789513 29.5341 0.450813C29.182 0.112316 28.6845 -0.0494612 28.1893 0.0132848C18.4546 1.15745 12.8722 5.3279 9.69054 9.43393L8.19873 9.36051C7.11643 9.30416 6.05962 9.68769 5.28908 10.4161L2.96196 12.6405C2.89631 12.6938 2.8655 12.7766 2.88135 12.8577C2.8972 12.9386 2.95726 13.0052 3.03877 13.0321L3.03854 13.0319ZM17.9681 7.61018C18.5089 7.09496 19.2415 6.80619 20.0049 6.80706C20.7686 6.80791 21.5005 7.09839 22.04 7.61466C22.5795 8.13093 22.8827 8.83101 22.8827 9.56069C22.8827 10.2904 22.5795 10.9905 22.04 11.5067C21.5006 12.023 20.7686 12.3137 20.0049 12.3143C19.2415 12.3152 18.5089 12.0264 17.9681 11.5112C17.4255 10.9945 17.1207 10.2927 17.1207 9.56069C17.1207 8.82866 17.4255 8.12689 17.9681 7.61018V7.61018ZM2.34345 23.7256C1.72719 23.5188 1.0656 23.4682 0.422699 23.5785C0.306592 23.6027 0.185792 23.5681 0.102724 23.4868C-0.00110503 23.3879 -0.02924 23.2377 0.0321633 23.1105C0.714105 21.7091 2.52271 18.8912 5.79751 21.1676C5.83212 21.1971 5.852 21.2395 5.852 21.2837C5.852 21.3281 5.83212 21.3706 5.79751 21.4C4.90836 22.0694 4.40574 23.1032 4.44346 24.1844C4.44838 24.3142 4.55734 24.4184 4.6931 24.4231C5.81936 24.4664 6.90029 23.9964 7.60613 23.1563C7.63717 23.1201 7.68361 23.0989 7.73251 23.0989C7.78163 23.0989 7.82808 23.1201 7.85911 23.1563C8.31373 23.6735 9.56528 25.3623 8.17931 26.9932H8.17909C7.57397 27.6885 6.70694 28.128 5.76554 28.2172C4.42109 28.3548 1.937 28.774 0.92238 29.8817C0.839318 29.9756 0.708914 30.0183 0.582981 29.9927C0.45727 29.9671 0.356345 29.8774 0.32039 29.7592C-0.0379863 28.5904 -0.595115 25.9774 2.34364 23.7255L2.34345 23.7256Z" fill="black"/>
</svg>
