<svg width="9" height="8" viewBox="0 0 9 8" fill="none" xmlns="http://www.w3.org/2000/svg">
<path d="M0.71243 3.56175e-06C0.322917 3.56175e-06 0 0.346835 0 0.765925V5.45012C0 5.86921 0.322917 6.21604 0.71243 6.21604L5.07584 6.21597L7.25161 7.9405C7.30773 7.98528 7.37734 8.00595 7.44683 7.99852C7.51632 7.99116 7.58079 7.95617 7.62768 7.90038C7.67458 7.84466 7.70044 7.77219 7.70038 7.69701V6.21603H8.28757C8.67708 6.21603 9 5.8692 9 5.45011V0.765921C9 0.346832 8.67708 0 8.28757 0L0.71243 3.56175e-06ZM2.37121 1.80479C2.38075 1.80432 2.39029 1.80432 2.39977 1.80479H5.19456C5.27027 1.80304 5.3434 1.83411 5.39751 1.89105C5.45162 1.94798 5.48213 2.02599 5.48213 2.10739C5.48213 2.18884 5.45162 2.26685 5.39751 2.32379C5.3434 2.38073 5.27027 2.4118 5.19456 2.40998H2.39977C2.30084 2.41281 2.20775 2.35952 2.15463 2.26963C2.10146 2.17973 2.09613 2.06646 2.14051 1.97123C2.18489 1.87599 2.27252 1.81277 2.3712 1.8048L2.37121 1.80479ZM2.39977 3.26511H6.60168L6.60174 3.26517C6.70218 3.26531 6.79495 3.32306 6.84517 3.41674C6.89533 3.51035 6.89533 3.62571 6.84517 3.71932C6.79495 3.813 6.70217 3.87075 6.60174 3.87088H2.39967C2.29923 3.87075 2.20646 3.813 2.15624 3.71932C2.10608 3.62571 2.10608 3.51035 2.15624 3.41674C2.20646 3.32306 2.29924 3.26531 2.39967 3.26517L2.39977 3.26511Z" fill="black"/>
</svg>
