<svg width="15" height="15" viewBox="0 0 15 15" fill="none" xmlns="http://www.w3.org/2000/svg">
<path d="M8.72656 5.51239L13.173 1.07144H11.2498V0H14.9998V3.75003H13.9283V1.82683L9.48745 6.2733L8.72656 5.51239ZM5.5123 8.7267L1.07142 13.1732V11.25H0V15H3.74997V13.9286H1.8268L6.27319 9.48761L5.5123 8.7267ZM14.9999 14.2446V11.25H13.9285V13.1732L9.48757 8.7267L8.72681 9.48749L13.1732 13.9284H11.25V14.9999H15L14.9999 14.2446ZM3.74997 1.07144V0H0V3.75003H1.07142V1.82683L5.5123 6.2733L6.27307 5.51252L1.82668 1.07156L3.74997 1.07144Z" fill="black"/>
</svg>
