<svg width="25" height="30" viewBox="0 0 25 30" fill="none" xmlns="http://www.w3.org/2000/svg">
<path fill-rule="evenodd" clip-rule="evenodd" d="M16.0147 0.000173951C16.0147 0.000173951 14.6862 4.84996 18.0073 9.18455C21.3273 13.5191 32.6653 22.0604 16.6279 30C16.6279 30 20.0242 25.944 18.3133 23.1759C16.6023 20.4077 12.9255 18.3476 13.5376 14.013C13.5376 14.013 8.68638 15.7089 10.831 23.3899C10.831 23.3899 8.09879 22.5532 6.94873 20.2893C6.94873 20.2893 5.25048 24.731 8.36643 29.9248C8.36643 29.9248 -8.10408 23.3245 5.17389 10.5043C5.17389 10.5043 5.45447 14.6887 7.42144 15.8478C7.42144 15.8478 4.17798 4.51769 16.0144 0L16.0147 0.000173951Z" fill="black"/>
</svg>
