<svg width="30" height="30" viewBox="0 0 30 30" fill="none" xmlns="http://www.w3.org/2000/svg">
<path d="M30 15.0166C30 13.4925 26.6841 12.5319 26.2738 11.1736C25.8317 9.74924 27.9789 6.93322 27.158 5.77367C26.337 4.58106 23.1159 5.83999 21.979 4.97854C20.8422 4.1175 20.9999 0.506343 19.6421 0.0425477C18.3473 -0.38819 16.4527 2.59348 15 2.59348C13.5473 2.59348 11.6842 -0.387942 10.3579 0.0425477C9.00013 0.506331 9.15786 4.1175 8.0527 4.97871C6.91586 5.83999 3.69474 4.58124 2.87375 5.77385C2.05275 6.96647 4.16854 9.74918 3.75796 11.1738C3.31586 12.5319 0 13.4925 0 15.0165C0 16.5405 3.31585 17.5011 3.72621 18.8594C4.1683 20.2838 2.02106 23.0999 2.842 24.2594C3.663 25.452 6.88411 24.1931 8.02096 25.0545C9.1578 25.9158 8.99985 29.527 10.3579 29.9575C11.6527 30.3882 13.5473 27.4065 15 27.4065C16.4527 27.4065 18.3158 30.3879 19.6421 29.9575C20.9999 29.4937 20.8421 25.9158 21.979 25.0545C23.1158 24.1933 26.3369 25.452 27.1579 24.2594C27.9789 23.0668 25.8632 20.2841 26.2737 18.8594C26.6841 17.5011 29.9999 16.5405 29.9999 15.0165L30 15.0166Z" fill="black"/>
</svg>
