<svg width="26" height="26" viewBox="0 0 26 26" fill="none" xmlns="http://www.w3.org/2000/svg">
<path d="M25.4152 23.8883L18.8124 17.2855C20.4565 15.2011 21.2421 12.5674 21.0082 9.92299C20.7745 7.27868 19.5391 4.8235 17.5547 3.05965C15.5705 1.29601 12.9875 0.357032 10.3336 0.435041C7.67998 0.513076 5.15635 1.60197 3.27921 3.47927C1.4019 5.35637 0.312979 7.88 0.234971 10.5337C0.156935 13.1874 1.09589 15.7704 2.85958 17.7548C4.62321 19.7392 7.07839 20.9746 9.72292 21.2083C12.3674 21.4422 15.0013 20.6565 17.0857 19.0125L23.6885 25.6153C23.9168 25.8455 24.2275 25.9749 24.5517 25.9749C24.876 25.9749 25.1866 25.8455 25.415 25.6153C25.6453 25.3869 25.7746 25.0762 25.7746 24.752C25.7746 24.4278 25.6455 24.1167 25.4152 23.8883ZM2.66404 10.8407C2.66256 8.19665 3.97157 5.72345 6.15912 4.23798C8.34645 2.75234 11.1279 2.4472 13.5854 3.42326C16.0429 4.39931 17.857 6.52965 18.4289 9.11131C19.0011 11.6929 18.2565 14.3902 16.4412 16.3129C16.2948 16.3777 16.1778 16.4948 16.1129 16.6411C14.5936 18.0736 12.5733 18.853 10.4856 18.8123C8.39797 18.7718 6.40954 17.9141 4.94687 16.4238C3.48452 14.9332 2.66491 12.9286 2.66404 10.8407Z" fill="black"/>
</svg>
