<svg width="8" height="9" viewBox="0 0 8 9" fill="none" xmlns="http://www.w3.org/2000/svg">
<path d="M6.76249 6.3411C6.38932 6.3411 6.05805 6.52515 5.82963 6.80744L2.76071 4.50011L5.82963 2.19277C6.0581 2.47506 6.38939 2.65912 6.76249 2.65912C7.4441 2.65912 8 2.06186 8 1.32956C8 0.597252 7.4441 0 6.76249 0C6.08088 0 5.52498 0.597252 5.52498 1.32956C5.52498 1.35816 5.53262 1.38684 5.53262 1.41545L2.30748 3.84131C2.09427 3.44451 1.69826 3.17044 1.23751 3.17044C0.555903 3.17044 0 3.76769 0 4.5C0 5.23231 0.555903 5.82956 1.23751 5.82956C1.69441 5.82956 2.09043 5.55547 2.30748 5.15869L5.53262 7.58455C5.53262 7.61316 5.52498 7.64184 5.52498 7.67044C5.52498 8.40275 6.08088 9 6.76249 9C7.4441 9 8 8.40275 8 7.67044C8 6.93814 7.4441 6.34088 6.76249 6.34088V6.3411ZM6.76249 0.818397C7.02524 0.818397 7.23845 1.04747 7.23845 1.32976C7.23845 1.61205 7.02524 1.84112 6.76249 1.84112C6.49974 1.84112 6.28653 1.61205 6.28653 1.32976C6.28653 1.04747 6.49974 0.818397 6.76249 0.818397ZM1.24137 5.01156C0.978619 5.01156 0.765406 4.78249 0.765406 4.5002C0.765406 4.21791 0.978619 3.98884 1.24137 3.98884C1.50411 3.98884 1.71732 4.21791 1.71732 4.5002C1.71732 4.78249 1.50411 5.01156 1.24137 5.01156ZM6.76249 8.182C6.49974 8.182 6.28653 7.95293 6.28653 7.67064C6.28653 7.38835 6.49974 7.15928 6.76249 7.15928C7.02524 7.15928 7.23845 7.38835 7.23845 7.67064C7.23845 7.95293 7.02524 8.182 6.76249 8.182Z" fill="black"/>
</svg>
