<svg width="35" height="35" viewBox="0 0 35 35" fill="none" xmlns="http://www.w3.org/2000/svg">
<path d="M8.74982 24.4997H1.7499C1.28584 24.4997 0.840527 24.6843 0.512401 25.0124C0.184275 25.3405 0 25.7856 0 26.2499V35.0002L10.5 34.9999V26.2503C10.5 25.786 10.3155 25.341 9.98733 25.0128C9.6592 24.6847 9.21415 24.5002 8.74983 24.5002L8.74982 24.4997Z" fill="black"/>
<path d="M21.0004 13.9997H14.0001C13.5361 13.9997 13.0911 14.1843 12.7629 14.5124C12.4345 14.8405 12.2502 15.2856 12.2502 15.7499V34.9994H22.7503V15.7499C22.7503 15.2855 22.566 14.8405 22.2376 14.5124C21.9094 14.1843 21.4644 13.9997 21.0004 13.9997H21.0004Z" fill="black"/>
<path d="M33.2501 19.2497H26.2502C25.7858 19.2497 25.3408 19.4343 25.0127 19.7624C24.6846 20.0905 24.5 20.5356 24.5 20.9999V35.0002H35V20.9999C35 20.5355 34.8157 20.0905 34.4876 19.7624C34.1595 19.4343 33.7142 19.2497 33.2501 19.2497H33.2501Z" fill="black"/>
<path d="M17.5001 0L15.7502 3.49981L12.2501 4.01104L15.1674 6.41719L14.2554 10.5001L17.5001 8.16717L20.7447 10.5001L19.8327 6.41719L22.7501 4.01104L19.25 3.49981L17.5001 0Z" fill="black"/>
</svg>
